<?xml version="1.0" encoding="UTF-8" standalone="no"?>
<!DOCTYPE svg PUBLIC "-//W3C//DTD SVG 1.1//EN"
 "http://www.w3.org/Graphics/SVG/1.1/DTD/svg11.dtd">
<!-- Generated by graphviz version 2.38.0 (20140413.2041)
 -->
<!-- Title: g Pages: 1 -->
<svg width="871pt" height="188pt"
 viewBox="0.00 0.00 871.39 188.00" xmlns="http://www.w3.org/2000/svg" xmlns:xlink="http://www.w3.org/1999/xlink">
<g id="graph0" class="graph" transform="scale(1 1) rotate(0) translate(4 184)">
<title>g</title>
<polygon fill="white" stroke="none" points="-4,4 -4,-184 867.386,-184 867.386,4 -4,4"/>
<!-- a -->
<g id="node1" class="node"><title>a</title>
<ellipse fill="none" stroke="black" cx="499.342" cy="-162" rx="32.4942" ry="18"/>
<text text-anchor="middle" x="499.342" y="-158.3" font-family="Times New Roman,serif" font-size="14.00">Why?</text>
</g>
<!-- b -->
<g id="node2" class="node"><title>b</title>
<ellipse fill="none" stroke="black" cx="90.342" cy="-90" rx="90.1842" ry="18"/>
<text text-anchor="middle" x="90.342" y="-86.3" font-family="Times New Roman,serif" font-size="14.00">Fast buffered updates</text>
</g>
<!-- a&#45;&gt;b -->
<g id="edge7" class="edge"><title>a&#45;&gt;b</title>
<path fill="none" stroke="black" d="M468.541,-155.742C412.826,-146.228 291.593,-125.52 189.342,-108 181.849,-106.716 174.037,-105.377 166.232,-104.037"/>
<polygon fill="black" stroke="black" points="166.822,-100.588 156.374,-102.346 165.638,-107.487 166.822,-100.588"/>
</g>
<!-- g -->
<g id="node4" class="node"><title>g</title>
<ellipse fill="none" stroke="black" cx="307.342" cy="-90" rx="108.581" ry="18"/>
<text text-anchor="middle" x="307.342" y="-86.3" font-family="Times New Roman,serif" font-size="14.00">Want a multi&#45;platform GUI</text>
</g>
<!-- a&#45;&gt;g -->
<g id="edge9" class="edge"><title>a&#45;&gt;g</title>
<path fill="none" stroke="black" d="M473.048,-151.414C444.01,-140.827 396.512,-123.51 359.796,-110.124"/>
<polygon fill="black" stroke="black" points="360.827,-106.774 350.233,-106.637 358.429,-113.351 360.827,-106.774"/>
</g>
<!-- d -->
<g id="node6" class="node"><title>d</title>
<ellipse fill="none" stroke="black" cx="499.342" cy="-90" rx="65.7887" ry="18"/>
<text text-anchor="middle" x="499.342" y="-86.3" font-family="Times New Roman,serif" font-size="14.00">More Colours?</text>
</g>
<!-- a&#45;&gt;d -->
<g id="edge1" class="edge"><title>a&#45;&gt;d</title>
<path fill="none" stroke="black" d="M499.342,-143.697C499.342,-135.983 499.342,-126.712 499.342,-118.112"/>
<polygon fill="black" stroke="black" points="502.842,-118.104 499.342,-108.104 495.842,-118.104 502.842,-118.104"/>
</g>
<!-- e -->
<g id="node7" class="node"><title>e</title>
<ellipse fill="none" stroke="black" cx="651.342" cy="-90" rx="68.4888" ry="18"/>
<text text-anchor="middle" x="651.342" y="-86.3" font-family="Times New Roman,serif" font-size="14.00">Inline escaping?</text>
</g>
<!-- a&#45;&gt;e -->
<g id="edge2" class="edge"><title>a&#45;&gt;e</title>
<path fill="none" stroke="black" d="M523.427,-149.908C546.49,-139.287 581.773,-123.039 609.445,-110.295"/>
<polygon fill="black" stroke="black" points="611.264,-113.31 618.883,-105.948 608.336,-106.952 611.264,-113.31"/>
</g>
<!-- f -->
<g id="node8" class="node"><title>f</title>
<ellipse fill="none" stroke="black" cx="800.342" cy="-90" rx="63.0888" ry="18"/>
<text text-anchor="middle" x="800.342" y="-86.3" font-family="Times New Roman,serif" font-size="14.00">Web console?</text>
</g>
<!-- a&#45;&gt;f -->
<g id="edge3" class="edge"><title>a&#45;&gt;f</title>
<path fill="none" stroke="black" d="M528.995,-154.181C572.66,-144.13 656.816,-124.721 728.342,-108 733.296,-106.842 738.44,-105.635 743.598,-104.423"/>
<polygon fill="black" stroke="black" points="744.554,-107.793 753.486,-102.095 742.95,-100.98 744.554,-107.793"/>
</g>
<!-- c -->
<g id="node3" class="node"><title>c</title>
<polygon fill="none" stroke="black" points="166.342,-36 14.342,-36 14.342,-3.55271e-015 166.342,-3.55271e-015 166.342,-36"/>
<text text-anchor="middle" x="90.342" y="-14.3" font-family="Times New Roman,serif" font-size="14.00">DirectConsole.Singleton</text>
</g>
<!-- b&#45;&gt;c -->
<g id="edge8" class="edge"><title>b&#45;&gt;c</title>
<path fill="none" stroke="black" d="M90.342,-71.6966C90.342,-63.9827 90.342,-54.7125 90.342,-46.1124"/>
<polygon fill="black" stroke="black" points="93.8421,-46.1043 90.342,-36.1043 86.8421,-46.1044 93.8421,-46.1043"/>
</g>
<!-- gg -->
<g id="node5" class="node"><title>gg</title>
<g id="a_node5"><a xlink:href="https://www.nuget.org/packages/Terminal.Gui/" xlink:title="Use GUI.cs">
<polygon fill="none" stroke="black" points="374.202,-23.5623 307.342,-36 240.482,-23.5623 240.544,-3.43769 374.14,-3.43769 374.202,-23.5623"/>
<text text-anchor="middle" x="307.342" y="-14.3" font-family="Times New Roman,serif" font-size="14.00">Use GUI.cs</text>
</a>
</g>
</g>
<!-- g&#45;&gt;gg -->
<g id="edge10" class="edge"><title>g&#45;&gt;gg</title>
<path fill="none" stroke="black" d="M307.342,-71.6966C307.342,-63.9827 307.342,-54.7125 307.342,-46.1124"/>
<polygon fill="black" stroke="black" points="310.842,-46.1043 307.342,-36.1043 303.842,-46.1044 310.842,-46.1043"/>
</g>
<!-- v -->
<g id="node9" class="node"><title>v</title>
<polygon fill="none" stroke="black" points="701.342,-36 601.342,-36 601.342,-3.55271e-015 701.342,-3.55271e-015 701.342,-36"/>
<text text-anchor="middle" x="651.342" y="-14.3" font-family="Times New Roman,serif" font-size="14.00">VirtualConsole</text>
</g>
<!-- d&#45;&gt;v -->
<g id="edge4" class="edge"><title>d&#45;&gt;v</title>
<path fill="none" stroke="black" d="M531.577,-74.1548C552.965,-64.3054 581.366,-51.2257 605.144,-40.2756"/>
<polygon fill="black" stroke="black" points="606.722,-43.4021 614.341,-36.04 603.794,-37.044 606.722,-43.4021"/>
</g>
<!-- e&#45;&gt;v -->
<g id="edge5" class="edge"><title>e&#45;&gt;v</title>
<path fill="none" stroke="black" d="M651.342,-71.6966C651.342,-63.9827 651.342,-54.7125 651.342,-46.1124"/>
<polygon fill="black" stroke="black" points="654.842,-46.1043 651.342,-36.1043 647.842,-46.1044 654.842,-46.1043"/>
</g>
<!-- f&#45;&gt;v -->
<g id="edge6" class="edge"><title>f&#45;&gt;v</title>
<path fill="none" stroke="black" d="M769.107,-74.3257C748.164,-64.4867 720.24,-51.3681 696.84,-40.3747"/>
<polygon fill="black" stroke="black" points="698.326,-37.2062 687.787,-36.1218 695.35,-43.5418 698.326,-37.2062"/>
</g>
</g>
</svg>
